# xmcd CD database file
#
# Track frame offsets:
#	150
#	35186
#	74551
#	104112
#	133046
#	159315
#	184871
#	209706
#
# Disc length: 3244 seconds
#
# Revision: 0
# Processed by: cddbd v1.5.1PL2 Copyright (c) Steve Scherf et al.
# Submitted via: CDex 1.51
#
DISCID=820caa08
DTITLE=Kidzen - Kidzen Remixed
DYEAR=2006
DGENRE=Jazz
TTITLE0=Um Ah! (Betaville Orchestra's Cryptography Parts 1, 2, and 3)
TTITLE1=Superpeople (Jamie Lloyd's Sprinkler Rework)
TTITLE2=Burn (Jimi Polar's Dimly Burning Remix)
TTITLE3=Supersticious (Jamie Lloyd Edit)
TTITLE4=Mad Stream (Rephrase Remix)
TTITLE5=Supersticious (Domu Remix)
TTITLE6=Burn (Deepchild's Southern Fried Badlib Remix)
TTITLE7=Calm (Peret Mako's Shhh - Peacefull Mix)
EXTD=YEAR: 2006
EXTT0=
EXTT1=
EXTT2=
EXTT3=
EXTT4=
EXTT5=
EXTT6=
EXTT7=
PLAYORDER=
